<?xml version="1.0" standalone="no"?>
<!DOCTYPE svg PUBLIC "-//W3C//DTD SVG 20010904//EN"
 "http://www.w3.org/TR/2001/REC-SVG-20010904/DTD/svg10.dtd">
<svg version="1.0" xmlns="http://www.w3.org/2000/svg"
 width="1200.000000pt" height="1200.000000pt" viewBox="0 0 1200.000000 1200.000000"
 preserveAspectRatio="xMidYMid meet">
<metadata>
Created by potrace 1.11, written by Peter Selinger 2001-2013
</metadata>
<g transform="translate(0.000000,1200.000000) scale(0.100000,-0.100000)"
fill="#000000" stroke="none">
<path d="M1620 6633 c0 -1113 3 -1646 11 -1708 36 -296 170 -568 383 -780 113
-112 214 -183 361 -255 345 -169 778 -173 1129 -11 93 43 228 128 291 183 l39
35 73 -58 c230 -183 512 -279 818 -279 573 0 1079 368 1259 915 64 195 60 65
63 1903 l4 1672 -441 0 -440 0 0 -1582 c0 -1027 -4 -1606 -10 -1648 -30 -191
-180 -340 -374 -372 -221 -37 -445 114 -495 333 -7 29 -11 606 -11 1657 l0
1612 -445 0 -445 0 -2 -1637 -3 -1638 -37 -77 c-67 -140 -183 -227 -338 -251
-209 -32 -417 98 -480 302 -20 62 -20 98 -20 1682 l0 1619 -445 0 -445 0 0
-1617z"/>
<path d="M6840 6035 l0 -2215 445 0 445 0 0 445 0 445 497 -2 497 -3 191 -442
190 -442 473 -1 c260 0 471 3 469 8 -4 6 -471 1105 -484 1138 -2 6 31 36 74
67 501 353 787 956 743 1566 -25 339 -128 625 -330 913 -83 119 -288 324 -410
410 -184 131 -452 249 -660 292 -166 34 -245 36 -1192 36 l-948 0 0 -2215z
m1859 1325 c651 -67 1005 -774 670 -1343 -53 -91 -210 -248 -299 -300 -36 -20
-100 -51 -142 -67 -142 -55 -202 -60 -724 -60 l-474 0 0 890 0 890 434 0 c239
0 479 -5 535 -10z"/>
</g>
</svg>
